<?xml version="1.0" encoding="UTF-8" standalone="no"?>
<svg
   xmlns:dsy="http://www.3ds.com/print"
   xmlns:dc="http://purl.org/dc/elements/1.1/"
   xmlns:cc="http://creativecommons.org/ns#"
   xmlns:rdf="http://www.w3.org/1999/02/22-rdf-syntax-ns#"
   xmlns:svg="http://www.w3.org/2000/svg"
   xmlns="http://www.w3.org/2000/svg"
   xmlns:sodipodi="http://sodipodi.sourceforge.net/DTD/sodipodi-0.dtd"
   xmlns:inkscape="http://www.inkscape.org/namespaces/inkscape"
   width="297"
   height="210"
   version="1.1"
   viewBox="0 0 297 210"
   dsy:text-version="21000"
   id="svg6024"
   inkscape:version="0.91 r13725"
   sodipodi:docname="logo.svg">
  <metadata
     id="metadata6142">
    <rdf:RDF>
      <cc:Work
         rdf:about="">
        <dc:format>image/svg+xml</dc:format>
        <dc:type
           rdf:resource="http://purl.org/dc/dcmitype/StillImage" />
        <dc:title />
      </cc:Work>
    </rdf:RDF>
  </metadata>
  <defs
     id="defs6140">
    <marker
       inkscape:stockid="Arrow1Mend"
       orient="auto"
       refY="0.0"
       refX="0.0"
       id="Arrow1Mend"
       style="overflow:visible;"
       inkscape:isstock="true">
      <path
         id="path4561"
         d="M 0.0,0.0 L 5.0,-5.0 L -12.5,0.0 L 5.0,5.0 L 0.0,0.0 z "
         style="fill-rule:evenodd;stroke:#000000;stroke-width:1pt;stroke-opacity:1;fill:#000000;fill-opacity:1"
         transform="scale(0.4) rotate(180) translate(10,0)" />
    </marker>
    <marker
       inkscape:stockid="Arrow1Mstart"
       orient="auto"
       refY="0.0"
       refX="0.0"
       id="Arrow1Mstart"
       style="overflow:visible"
       inkscape:isstock="true">
      <path
         id="path4558"
         d="M 0.0,0.0 L 5.0,-5.0 L -12.5,0.0 L 5.0,5.0 L 0.0,0.0 z "
         style="fill-rule:evenodd;stroke:#000000;stroke-width:1pt;stroke-opacity:1;fill:#000000;fill-opacity:1"
         transform="scale(0.4) translate(10,0)" />
    </marker>
    <marker
       inkscape:stockid="Arrow2Mstart"
       orient="auto"
       refY="0.0"
       refX="0.0"
       id="Arrow2Mstart"
       style="overflow:visible"
       inkscape:isstock="true">
      <path
         id="path4576"
         style="fill-rule:evenodd;stroke-width:0.625;stroke-linejoin:round;stroke:#000000;stroke-opacity:1;fill:#000000;fill-opacity:1"
         d="M 8.7185878,4.0337352 L -2.2072895,0.016013256 L 8.7185884,-4.0017078 C 6.9730900,-1.6296469 6.9831476,1.6157441 8.7185878,4.0337352 z "
         transform="scale(0.6) translate(0,0)" />
    </marker>
    <marker
       inkscape:stockid="Arrow1Sstart"
       orient="auto"
       refY="0.0"
       refX="0.0"
       id="marker6774"
       style="overflow:visible"
       inkscape:isstock="true">
      <path
         id="path6776"
         d="M 0.0,0.0 L 5.0,-5.0 L -12.5,0.0 L 5.0,5.0 L 0.0,0.0 z "
         style="fill-rule:evenodd;stroke:#000000;stroke-width:1pt;stroke-opacity:1;fill:#000000;fill-opacity:1"
         transform="scale(0.2) translate(6,0)" />
    </marker>
    <marker
       inkscape:stockid="Arrow1Send"
       orient="auto"
       refY="0.0"
       refX="0.0"
       id="Arrow1Send"
       style="overflow:visible;"
       inkscape:isstock="true">
      <path
         id="path4567"
         d="M 0.0,0.0 L 5.0,-5.0 L -12.5,0.0 L 5.0,5.0 L 0.0,0.0 z "
         style="fill-rule:evenodd;stroke:#000000;stroke-width:1pt;stroke-opacity:1;fill:#000000;fill-opacity:1"
         transform="scale(0.2) rotate(180) translate(6,0)" />
    </marker>
    <marker
       inkscape:stockid="Arrow1Sstart"
       orient="auto"
       refY="0.0"
       refX="0.0"
       id="Arrow1Sstart"
       style="overflow:visible"
       inkscape:isstock="true">
      <path
         id="path4564"
         d="M 0.0,0.0 L 5.0,-5.0 L -12.5,0.0 L 5.0,5.0 L 0.0,0.0 z "
         style="fill-rule:evenodd;stroke:#000000;stroke-width:1pt;stroke-opacity:1;fill:#000000;fill-opacity:1"
         transform="scale(0.2) translate(6,0)" />
    </marker>
  </defs>
  <sodipodi:namedview
     pagecolor="#ffffff"
     bordercolor="#666666"
     borderopacity="1"
     objecttolerance="10"
     gridtolerance="10"
     guidetolerance="10"
     inkscape:pageopacity="0"
     inkscape:pageshadow="2"
     inkscape:window-width="1920"
     inkscape:window-height="1027"
     id="namedview6138"
     showgrid="false"
     inkscape:zoom="4"
     inkscape:cx="216.60607"
     inkscape:cy="104.10314"
     inkscape:window-x="1912"
     inkscape:window-y="-8"
     inkscape:window-maximized="1"
     inkscape:current-layer="g6054" />
  <g
     fill="none"
     stroke="rgb(0, 0, 0)"
     stroke-width="0.35"
     stroke-linecap="butt"
     stroke-linejoin="miter"
     id="g6054">
    <g
       id="g4172"
       transform="matrix(0,1,-1,0,247.01804,-38.744677)"
       style="stroke-width:1;stroke-miterlimit:4;stroke-dasharray:none;stroke-linejoin:round">
      <path
         style="stroke-width:1;stroke-linejoin:round;stroke-miterlimit:4;stroke-dasharray:none"
         inkscape:connector-curvature="0"
         id="path6088"
         d="m 122.99061,82.371315 0.0137,-11.009764 10.77072,0.01953 0.0156,10.953127 0,0.04687 c -2.16109,1.897536 -3.4,4.634074 -3.4,7.521718 l 0,12.978514 c 0,2.8857 1.23891,5.62223 3.4,7.54323 l -1e-5,10.95704 -10.77065,0.0195 c -0.0703,-0.0156 -0.0352,-10.95508 -0.0352,-10.95508 2.16695,-1.94246 3.40586,-4.67899 3.42866,-8.37527 l -0.0228,-12.167934 c -1e-5,-2.887644 -1.23892,-5.624182 -3.40002,-7.531481 z"
         sodipodi:nodetypes="cccccccccccccc" />
    </g>
    <g
       id="g4227"
       transform="translate(107.94896,59.363012)">
      <g
         id="g4187">
        <path
           id="path4189"
           d="m 77.45,57.695 0,-3.16 0,-18.968 0,-18.968 c 0,-1.736 -1.421,-3.16 -3.16,-3.16 l -63.224,0 c -1.739,0 -3.164,1.417 -3.164,3.16 l 0,18.968 0,18.968 0,3.16 L 0,67.179 c 0,2.613 2.122,4.738 4.742,4.738 l 75.872,0 c 2.616,0 4.742,-2.126 4.742,-4.738 L 77.45,57.695 Z m -28.445,12.647 -12.647,0 c -0.437,0 -0.791,-0.351 -0.791,-0.791 0,-0.44 0.354,-0.791 0.791,-0.791 l 12.648,0 c 0.433,0 0.791,0.351 0.791,0.791 -0.012,0.441 -0.359,0.791 -0.792,0.791 z m -19.358,-3.16 2.412,-2.895 21.233,0 2.416,2.895 -26.061,0 z M 73.001,52.104 c 0,1.525 -1.242,2.759 -2.756,2.759 l -55.135,0 c -1.514,0 -2.756,-1.245 -2.756,-2.759 l 0,-33.068 c 0,-1.525 1.242,-2.759 2.756,-2.759 l 55.136,0 c 1.514,0 2.756,1.242 2.756,2.759 -10e-4,0 -10e-4,33.068 -10e-4,33.068 z"
           style="fill:#010002"
           inkscape:connector-curvature="0" />
      </g>
      <g
         id="g4191" />
      <g
         id="g4193" />
      <g
         id="g4195" />
      <g
         id="g4197" />
      <g
         id="g4199" />
      <g
         id="g4201" />
      <g
         id="g4203" />
      <g
         id="g4205" />
      <g
         id="g4207" />
      <g
         id="g4209" />
      <g
         id="g4211" />
      <g
         id="g4213" />
      <g
         id="g4215" />
      <g
         id="g4217" />
      <g
         id="g4219" />
    </g>
    <text
       xml:space="preserve"
       style="font-style:normal;font-weight:normal;font-size:12.5px;line-height:125%;font-family:sans-serif;letter-spacing:0px;word-spacing:0px;fill:#000000;fill-opacity:1;stroke:none;stroke-width:1px;stroke-linecap:butt;stroke-linejoin:miter;stroke-opacity:1"
       x="131.20705"
       y="106.81765"
       id="text4246"
       sodipodi:linespacing="125%"><tspan
         sodipodi:role="line"
         id="tspan4248"
         x="131.20705"
         y="106.81765"
         style="font-style:normal;font-variant:normal;font-weight:500;font-stretch:normal;font-family:Montserrat;-inkscape-font-specification:'Montserrat Medium'">ODEM</tspan></text>
  </g>
</svg>
